<?xml version="1.0" standalone="no"?><!DOCTYPE svg PUBLIC "-//W3C//DTD SVG 1.1//EN" "http://www.w3.org/Graphics/SVG/1.1/DTD/svg11.dtd"><svg width="1024" height="1024" viewBox="0 0 1024 1024" version="1.1" xmlns="http://www.w3.org/2000/svg" xmlns:xlink="http://www.w3.org/1999/xlink"><path d="M896 64 128 64C92.672 64 64 92.672 64 128l0 768c0 35.328 28.672 64 64 64l768 0c35.328 0 64-28.672 64-64L960 128C960 92.672 931.328 64 896 64zM384 512 384 384l256 0 0 128L384 512zM640 576l0 128L384 704 384 576 640 576zM128 384l192 0 0 128L128 512 128 384zM128 576l192 0 0 128L128 704 128 576zM128 896l0-128 192 0 0 128L128 896zM384 896l0-128 256 0 0 128L384 896zM896 896l-192 0 0-128 192 0L896 896zM896 704l-192 0L704 576l192 0L896 704zM896 512l-192 0L704 384l192 0L896 512z" fill="#ffffff"></path></svg>